<svg xmlns="http://www.w3.org/2000/svg" xmlns:xlink="http://www.w3.org/1999/xlink" width="120" zoomAndPan="magnify" viewBox="0 0 90 30.000001" height="40" preserveAspectRatio="xMidYMid meet" version="1.0"><defs><g/><clipPath id="b8fd55f2c0"><path d="M 8 0 L 45 0 L 45 29.03125 L 8 29.03125 Z M 8 0 " clip-rule="nonzero"/></clipPath><clipPath id="7f0cf7e204"><rect x="0" width="37" y="0" height="30"/></clipPath><clipPath id="4e9c4b6ff0"><path d="M 1.453125 0 L 32 0 L 32 29.03125 L 1.453125 29.03125 Z M 1.453125 0 " clip-rule="nonzero"/></clipPath><clipPath id="c7bd073a4c"><rect x="0" width="31" y="0" height="30"/></clipPath><clipPath id="fd8203b2a3"><path d="M 1 0.5625 L 5 0.5625 L 5 8 L 1 8 Z M 1 0.5625 " clip-rule="nonzero"/></clipPath><clipPath id="87319731b7"><path d="M 5 0.5625 L 10 0.5625 L 10 8 L 5 8 Z M 5 0.5625 " clip-rule="nonzero"/></clipPath><clipPath id="13accdfffc"><path d="M 9 0.5625 L 14 0.5625 L 14 8 L 9 8 Z M 9 0.5625 " clip-rule="nonzero"/></clipPath><clipPath id="86803bf861"><path d="M 14 0.5625 L 20 0.5625 L 20 8 L 14 8 Z M 14 0.5625 " clip-rule="nonzero"/></clipPath><clipPath id="02d12c05c7"><path d="M 20 0.5625 L 25 0.5625 L 25 8 L 20 8 Z M 20 0.5625 " clip-rule="nonzero"/></clipPath><clipPath id="6ed64bc539"><path d="M 25 0.5625 L 29 0.5625 L 29 8 L 25 8 Z M 25 0.5625 " clip-rule="nonzero"/></clipPath><clipPath id="86c67d3715"><path d="M 28 0.5625 L 35 0.5625 L 35 8 L 28 8 Z M 28 0.5625 " clip-rule="nonzero"/></clipPath><clipPath id="8211f37df6"><path d="M 35 0.5625 L 40 0.5625 L 40 8 L 35 8 Z M 35 0.5625 " clip-rule="nonzero"/></clipPath><clipPath id="b0ffbc7811"><path d="M 42 0.5625 L 48 0.5625 L 48 8 L 42 8 Z M 42 0.5625 " clip-rule="nonzero"/></clipPath><clipPath id="dfe88d6646"><path d="M 47 0.5625 L 49.992188 0.5625 L 49.992188 8 L 47 8 Z M 47 0.5625 " clip-rule="nonzero"/></clipPath><clipPath id="3e32f61806"><rect x="0" width="50" y="0" height="9"/></clipPath></defs><g clip-path="url(#b8fd55f2c0)"><g transform="matrix(1, 0, 0, 1, 8, 0.000000000000005692)"><g clip-path="url(#7f0cf7e204)"><g fill="#000000" fill-opacity="1"><g transform="translate(6.762479, 16.937685)"><g><path d="M 6.828125 5.40625 C 5.648438 4.550781 4.773438 3.609375 4.203125 2.578125 C 3.640625 1.546875 3.382812 0.5 3.4375 -0.5625 C 3.5 -1.625 3.875 -2.632812 4.5625 -3.59375 L 6.40625 -2.25 C 5.738281 -1.289062 5.570312 -0.28125 5.90625 0.78125 C 6.238281 1.851562 6.976562 2.804688 8.125 3.640625 C 9.164062 4.398438 10.140625 4.796875 11.046875 4.828125 C 11.953125 4.859375 12.664062 4.515625 13.1875 3.796875 C 13.6875 3.109375 13.789062 2.335938 13.5 1.484375 C 13.21875 0.640625 12.523438 -0.414062 11.421875 -1.6875 C 9.929688 -3.4375 9.007812 -4.953125 8.65625 -6.234375 C 8.3125 -7.523438 8.554688 -8.738281 9.390625 -9.875 C 10.296875 -11.125 11.488281 -11.765625 12.96875 -11.796875 C 14.445312 -11.835938 15.988281 -11.269531 17.59375 -10.09375 C 19.25 -8.894531 20.253906 -7.53125 20.609375 -6 C 20.960938 -4.476562 20.628906 -3 19.609375 -1.5625 L 17.78125 -2.90625 C 18.40625 -3.789062 18.582031 -4.71875 18.3125 -5.6875 C 18.050781 -6.664062 17.378906 -7.546875 16.296875 -8.328125 C 15.242188 -9.097656 14.269531 -9.492188 13.375 -9.515625 C 12.488281 -9.535156 11.796875 -9.195312 11.296875 -8.5 C 10.847656 -7.894531 10.742188 -7.1875 10.984375 -6.375 C 11.234375 -5.5625 11.953125 -4.460938 13.140625 -3.078125 C 14.679688 -1.234375 15.597656 0.320312 15.890625 1.59375 C 16.179688 2.863281 15.929688 4.039062 15.140625 5.125 C 14.210938 6.394531 12.992188 7.050781 11.484375 7.09375 C 9.984375 7.144531 8.429688 6.582031 6.828125 5.40625 Z M 6.828125 5.40625 "/></g></g></g></g></g></g><g clip-path="url(#4e9c4b6ff0)"><g transform="matrix(1, 0, 0, 1, 1, 0.000000000000005692)"><g clip-path="url(#c7bd073a4c)"><g fill="#000000" fill-opacity="1"><g transform="translate(0.316927, 16.61885)"><g><path d="M 6.828125 5.40625 C 5.648438 4.550781 4.773438 3.609375 4.203125 2.578125 C 3.640625 1.546875 3.382812 0.5 3.4375 -0.5625 C 3.5 -1.625 3.875 -2.632812 4.5625 -3.59375 L 6.40625 -2.25 C 5.738281 -1.289062 5.570312 -0.28125 5.90625 0.78125 C 6.238281 1.851562 6.976562 2.804688 8.125 3.640625 C 9.164062 4.398438 10.140625 4.796875 11.046875 4.828125 C 11.953125 4.859375 12.664062 4.515625 13.1875 3.796875 C 13.6875 3.109375 13.789062 2.335938 13.5 1.484375 C 13.21875 0.640625 12.523438 -0.414062 11.421875 -1.6875 C 9.929688 -3.4375 9.007812 -4.953125 8.65625 -6.234375 C 8.3125 -7.523438 8.554688 -8.738281 9.390625 -9.875 C 10.296875 -11.125 11.488281 -11.765625 12.96875 -11.796875 C 14.445312 -11.835938 15.988281 -11.269531 17.59375 -10.09375 C 19.25 -8.894531 20.253906 -7.53125 20.609375 -6 C 20.960938 -4.476562 20.628906 -3 19.609375 -1.5625 L 17.78125 -2.90625 C 18.40625 -3.789062 18.582031 -4.71875 18.3125 -5.6875 C 18.050781 -6.664062 17.378906 -7.546875 16.296875 -8.328125 C 15.242188 -9.097656 14.269531 -9.492188 13.375 -9.515625 C 12.488281 -9.535156 11.796875 -9.195312 11.296875 -8.5 C 10.847656 -7.894531 10.742188 -7.1875 10.984375 -6.375 C 11.234375 -5.5625 11.953125 -4.460938 13.140625 -3.078125 C 14.679688 -1.234375 15.597656 0.320312 15.890625 1.59375 C 16.179688 2.863281 15.929688 4.039062 15.140625 5.125 C 14.210938 6.394531 12.992188 7.050781 11.484375 7.09375 C 9.984375 7.144531 8.429688 6.582031 6.828125 5.40625 Z M 6.828125 5.40625 "/></g></g></g></g></g></g><g transform="matrix(1, 0, 0, 1, 36, 15)"><g clip-path="url(#3e32f61806)"><g clip-path="url(#fd8203b2a3)"><g fill="#000000" fill-opacity="1"><g transform="translate(0.945531, 7.667677)"><g><path d="M 2.140625 -6.84375 C 2.679688 -6.84375 3.085938 -6.695312 3.359375 -6.40625 C 3.640625 -6.113281 3.78125 -5.703125 3.78125 -5.171875 C 3.78125 -5.109375 3.757812 -5.054688 3.71875 -5.015625 C 3.675781 -4.972656 3.625 -4.953125 3.5625 -4.953125 L 2.9375 -4.953125 C 2.875 -4.953125 2.820312 -4.972656 2.78125 -5.015625 C 2.738281 -5.054688 2.71875 -5.109375 2.71875 -5.171875 L 2.71875 -5.234375 C 2.71875 -5.472656 2.671875 -5.644531 2.578125 -5.75 C 2.484375 -5.84375 2.347656 -5.890625 2.171875 -5.890625 C 1.984375 -5.890625 1.84375 -5.84375 1.75 -5.75 C 1.65625 -5.644531 1.609375 -5.472656 1.609375 -5.234375 C 1.609375 -5.109375 1.625 -4.992188 1.65625 -4.890625 C 1.6875 -4.773438 1.738281 -4.660156 1.8125 -4.546875 C 1.882812 -4.429688 1.984375 -4.316406 2.109375 -4.203125 C 2.234375 -4.066406 2.382812 -3.925781 2.5625 -3.78125 C 2.789062 -3.582031 2.988281 -3.398438 3.15625 -3.234375 C 3.300781 -3.054688 3.421875 -2.890625 3.515625 -2.734375 C 3.609375 -2.554688 3.679688 -2.382812 3.734375 -2.21875 C 3.765625 -2.050781 3.78125 -1.875 3.78125 -1.6875 C 3.78125 -1.144531 3.644531 -0.726562 3.375 -0.4375 C 3.09375 -0.144531 2.675781 0 2.125 0 C 1.582031 0 1.171875 -0.144531 0.890625 -0.4375 C 0.609375 -0.726562 0.46875 -1.144531 0.46875 -1.6875 L 0.46875 -1.890625 C 0.46875 -1.941406 0.488281 -1.988281 0.53125 -2.03125 C 0.570312 -2.070312 0.617188 -2.09375 0.671875 -2.09375 L 1.3125 -2.09375 C 1.363281 -2.09375 1.410156 -2.070312 1.453125 -2.03125 C 1.492188 -1.988281 1.515625 -1.941406 1.515625 -1.890625 L 1.515625 -1.609375 C 1.515625 -1.378906 1.566406 -1.210938 1.671875 -1.109375 C 1.773438 -1.015625 1.914062 -0.96875 2.09375 -0.96875 C 2.269531 -0.96875 2.410156 -1.015625 2.515625 -1.109375 C 2.617188 -1.210938 2.671875 -1.378906 2.671875 -1.609375 C 2.671875 -1.734375 2.65625 -1.851562 2.625 -1.96875 C 2.59375 -2.070312 2.539062 -2.179688 2.46875 -2.296875 C 2.394531 -2.410156 2.296875 -2.53125 2.171875 -2.65625 C 2.046875 -2.78125 1.894531 -2.921875 1.71875 -3.078125 C 1.488281 -3.265625 1.296875 -3.441406 1.140625 -3.609375 C 0.984375 -3.785156 0.859375 -3.957031 0.765625 -4.125 C 0.660156 -4.289062 0.59375 -4.457031 0.5625 -4.625 C 0.519531 -4.789062 0.5 -4.972656 0.5 -5.171875 C 0.5 -5.703125 0.632812 -6.113281 0.90625 -6.40625 C 1.175781 -6.695312 1.585938 -6.84375 2.140625 -6.84375 Z M 2.140625 -6.84375 "/></g></g></g></g><g clip-path="url(#87319731b7)"><g fill="#000000" fill-opacity="1"><g transform="translate(4.919609, 7.667677)"><g><path d="M 4.328125 -6.0625 C 4.328125 -5.988281 4.300781 -5.925781 4.25 -5.875 C 4.195312 -5.820312 4.128906 -5.796875 4.046875 -5.796875 L 3.203125 -5.796875 C 3.117188 -5.796875 3.054688 -5.769531 3.015625 -5.71875 C 2.953125 -5.664062 2.921875 -5.597656 2.921875 -5.515625 L 2.921875 -0.265625 C 2.921875 -0.191406 2.894531 -0.128906 2.84375 -0.078125 C 2.789062 -0.0234375 2.722656 0 2.640625 0 L 2.140625 0 C 2.066406 0 2.003906 -0.0234375 1.953125 -0.078125 C 1.898438 -0.128906 1.875 -0.191406 1.875 -0.265625 L 1.875 -5.515625 C 1.875 -5.597656 1.847656 -5.664062 1.796875 -5.71875 C 1.734375 -5.769531 1.664062 -5.796875 1.59375 -5.796875 L 0.734375 -5.796875 C 0.660156 -5.796875 0.597656 -5.820312 0.546875 -5.875 C 0.492188 -5.925781 0.46875 -5.988281 0.46875 -6.0625 L 0.46875 -6.578125 C 0.46875 -6.648438 0.492188 -6.71875 0.546875 -6.78125 C 0.597656 -6.820312 0.660156 -6.84375 0.734375 -6.84375 L 4.046875 -6.84375 C 4.128906 -6.84375 4.195312 -6.820312 4.25 -6.78125 C 4.300781 -6.71875 4.328125 -6.648438 4.328125 -6.578125 Z M 4.328125 -6.0625 "/></g></g></g></g><g clip-path="url(#13accdfffc)"><g fill="#000000" fill-opacity="1"><g transform="translate(8.687921, 7.667677)"><g><path d="M 4.265625 0 C 4.140625 0 4.054688 -0.0664062 4.015625 -0.203125 C 3.992188 -0.273438 3.96875 -0.375 3.9375 -0.5 C 3.894531 -0.625 3.847656 -0.796875 3.796875 -1.015625 C 3.753906 -1.148438 3.660156 -1.21875 3.515625 -1.21875 L 2.03125 -1.21875 C 1.894531 -1.21875 1.800781 -1.148438 1.75 -1.015625 C 1.707031 -0.847656 1.671875 -0.695312 1.640625 -0.5625 C 1.609375 -0.425781 1.578125 -0.304688 1.546875 -0.203125 C 1.492188 -0.0664062 1.40625 0 1.28125 0 L 0.75 0 C 0.65625 0 0.582031 -0.0351562 0.53125 -0.109375 C 0.476562 -0.179688 0.460938 -0.257812 0.484375 -0.34375 C 0.546875 -0.570312 0.625 -0.863281 0.71875 -1.21875 C 0.8125 -1.570312 0.914062 -1.953125 1.03125 -2.359375 C 1.144531 -2.765625 1.257812 -3.1875 1.375 -3.625 C 1.488281 -4.050781 1.597656 -4.460938 1.703125 -4.859375 C 1.796875 -5.242188 1.890625 -5.597656 1.984375 -5.921875 C 2.066406 -6.222656 2.128906 -6.460938 2.171875 -6.640625 C 2.191406 -6.703125 2.222656 -6.753906 2.265625 -6.796875 C 2.316406 -6.828125 2.375 -6.84375 2.4375 -6.84375 L 3.109375 -6.84375 C 3.171875 -6.84375 3.226562 -6.828125 3.28125 -6.796875 C 3.332031 -6.753906 3.363281 -6.703125 3.375 -6.640625 C 3.59375 -5.816406 3.78125 -5.113281 3.9375 -4.53125 C 4.09375 -3.945312 4.222656 -3.457031 4.328125 -3.0625 C 4.441406 -2.65625 4.53125 -2.332031 4.59375 -2.09375 C 4.65625 -1.851562 4.707031 -1.660156 4.75 -1.515625 C 4.789062 -1.367188 4.820312 -1.253906 4.84375 -1.171875 C 4.863281 -1.097656 4.882812 -1.023438 4.90625 -0.953125 C 4.925781 -0.878906 4.945312 -0.800781 4.96875 -0.71875 C 4.988281 -0.632812 5.019531 -0.507812 5.0625 -0.34375 C 5.09375 -0.257812 5.078125 -0.179688 5.015625 -0.109375 C 4.960938 -0.0351562 4.890625 0 4.796875 0 Z M 2.1875 -2.625 C 2.164062 -2.539062 2.179688 -2.460938 2.234375 -2.390625 C 2.285156 -2.316406 2.359375 -2.28125 2.453125 -2.28125 L 3.109375 -2.28125 C 3.191406 -2.28125 3.257812 -2.316406 3.3125 -2.390625 C 3.375 -2.460938 3.390625 -2.539062 3.359375 -2.625 C 3.304688 -2.800781 3.257812 -2.988281 3.21875 -3.1875 C 3.15625 -3.382812 3.09375 -3.597656 3.03125 -3.828125 C 3.019531 -3.890625 2.988281 -3.941406 2.9375 -3.984375 C 2.882812 -4.015625 2.832031 -4.03125 2.78125 -4.03125 C 2.71875 -4.03125 2.660156 -4.015625 2.609375 -3.984375 C 2.566406 -3.941406 2.535156 -3.890625 2.515625 -3.828125 C 2.453125 -3.617188 2.398438 -3.414062 2.359375 -3.21875 C 2.296875 -3.019531 2.238281 -2.820312 2.1875 -2.625 Z M 2.1875 -2.625 "/></g></g></g></g><g clip-path="url(#86803bf861)"><g fill="#000000" fill-opacity="1"><g transform="translate(13.774733, 7.667677)"><g><path d="M 5.546875 -1.265625 C 5.585938 -1.253906 5.613281 -1.222656 5.625 -1.171875 C 5.632812 -1.128906 5.625 -1.09375 5.59375 -1.0625 C 5.332031 -0.707031 5.015625 -0.441406 4.640625 -0.265625 C 4.265625 -0.0859375 3.84375 0 3.375 0 C 2.425781 0 1.6875 -0.351562 1.15625 -1.0625 C 0.695312 -1.675781 0.46875 -2.460938 0.46875 -3.421875 C 0.46875 -3.898438 0.523438 -4.335938 0.640625 -4.734375 C 0.753906 -5.128906 0.925781 -5.476562 1.15625 -5.78125 C 1.414062 -6.132812 1.734375 -6.40625 2.109375 -6.59375 C 2.484375 -6.757812 2.90625 -6.84375 3.375 -6.84375 C 3.84375 -6.84375 4.265625 -6.757812 4.640625 -6.59375 C 5.015625 -6.40625 5.332031 -6.132812 5.59375 -5.78125 C 5.625 -5.75 5.632812 -5.710938 5.625 -5.671875 C 5.613281 -5.628906 5.585938 -5.597656 5.546875 -5.578125 L 4.890625 -5.1875 C 4.816406 -5.15625 4.753906 -5.164062 4.703125 -5.21875 C 4.597656 -5.34375 4.484375 -5.441406 4.359375 -5.515625 C 4.234375 -5.597656 4.113281 -5.660156 4 -5.703125 C 3.882812 -5.734375 3.769531 -5.757812 3.65625 -5.78125 C 3.550781 -5.789062 3.457031 -5.796875 3.375 -5.796875 C 3.226562 -5.796875 3.050781 -5.773438 2.84375 -5.734375 C 2.632812 -5.679688 2.4375 -5.570312 2.25 -5.40625 C 2.039062 -5.25 1.867188 -5.015625 1.734375 -4.703125 C 1.585938 -4.378906 1.515625 -3.953125 1.515625 -3.421875 C 1.515625 -2.878906 1.585938 -2.457031 1.734375 -2.15625 C 1.867188 -1.84375 2.039062 -1.601562 2.25 -1.4375 C 2.4375 -1.28125 2.632812 -1.175781 2.84375 -1.125 C 3.050781 -1.082031 3.226562 -1.0625 3.375 -1.0625 C 3.457031 -1.0625 3.550781 -1.066406 3.65625 -1.078125 C 3.769531 -1.085938 3.882812 -1.113281 4 -1.15625 C 4.113281 -1.195312 4.234375 -1.253906 4.359375 -1.328125 C 4.484375 -1.398438 4.597656 -1.5 4.703125 -1.625 C 4.753906 -1.6875 4.816406 -1.695312 4.890625 -1.65625 Z M 5.546875 -1.265625 "/></g></g></g></g><g clip-path="url(#02d12c05c7)"><g fill="#000000" fill-opacity="1"><g transform="translate(19.871468, 7.667677)"><g><path d="M 2.515625 -3.59375 C 2.484375 -3.539062 2.46875 -3.484375 2.46875 -3.421875 C 2.46875 -3.359375 2.484375 -3.304688 2.515625 -3.265625 L 4.59375 -0.4375 C 4.664062 -0.351562 4.675781 -0.257812 4.625 -0.15625 C 4.570312 -0.0507812 4.488281 0 4.375 0 L 3.75 0 C 3.65625 0 3.582031 -0.0351562 3.53125 -0.109375 L 1.8125 -2.453125 C 1.789062 -2.472656 1.769531 -2.484375 1.75 -2.484375 C 1.71875 -2.484375 1.695312 -2.472656 1.6875 -2.453125 L 1.53125 -2.25 C 1.519531 -2.238281 1.515625 -2.222656 1.515625 -2.203125 L 1.515625 -0.28125 C 1.515625 -0.195312 1.492188 -0.128906 1.453125 -0.078125 C 1.390625 -0.0234375 1.320312 0 1.25 0 L 0.75 0 C 0.664062 0 0.597656 -0.0234375 0.546875 -0.078125 C 0.492188 -0.128906 0.46875 -0.195312 0.46875 -0.28125 L 0.46875 -6.5625 C 0.46875 -6.644531 0.492188 -6.71875 0.546875 -6.78125 C 0.597656 -6.820312 0.664062 -6.84375 0.75 -6.84375 L 1.25 -6.84375 C 1.320312 -6.84375 1.390625 -6.820312 1.453125 -6.78125 C 1.492188 -6.71875 1.515625 -6.644531 1.515625 -6.5625 L 1.515625 -4.234375 C 1.515625 -4.191406 1.535156 -4.171875 1.578125 -4.171875 C 1.617188 -4.160156 1.644531 -4.171875 1.65625 -4.203125 L 3.53125 -6.734375 C 3.59375 -6.804688 3.664062 -6.84375 3.75 -6.84375 L 4.375 -6.84375 C 4.488281 -6.84375 4.570312 -6.796875 4.625 -6.703125 C 4.675781 -6.597656 4.664062 -6.5 4.59375 -6.40625 Z M 2.515625 -3.59375 "/></g></g></g></g><g clip-path="url(#6ed64bc539)"><g fill="#000000" fill-opacity="1"><g transform="translate(24.63101, 7.667677)"><g><path d="M 2.140625 -6.84375 C 2.679688 -6.84375 3.085938 -6.695312 3.359375 -6.40625 C 3.640625 -6.113281 3.78125 -5.703125 3.78125 -5.171875 C 3.78125 -5.109375 3.757812 -5.054688 3.71875 -5.015625 C 3.675781 -4.972656 3.625 -4.953125 3.5625 -4.953125 L 2.9375 -4.953125 C 2.875 -4.953125 2.820312 -4.972656 2.78125 -5.015625 C 2.738281 -5.054688 2.71875 -5.109375 2.71875 -5.171875 L 2.71875 -5.234375 C 2.71875 -5.472656 2.671875 -5.644531 2.578125 -5.75 C 2.484375 -5.84375 2.347656 -5.890625 2.171875 -5.890625 C 1.984375 -5.890625 1.84375 -5.84375 1.75 -5.75 C 1.65625 -5.644531 1.609375 -5.472656 1.609375 -5.234375 C 1.609375 -5.109375 1.625 -4.992188 1.65625 -4.890625 C 1.6875 -4.773438 1.738281 -4.660156 1.8125 -4.546875 C 1.882812 -4.429688 1.984375 -4.316406 2.109375 -4.203125 C 2.234375 -4.066406 2.382812 -3.925781 2.5625 -3.78125 C 2.789062 -3.582031 2.988281 -3.398438 3.15625 -3.234375 C 3.300781 -3.054688 3.421875 -2.890625 3.515625 -2.734375 C 3.609375 -2.554688 3.679688 -2.382812 3.734375 -2.21875 C 3.765625 -2.050781 3.78125 -1.875 3.78125 -1.6875 C 3.78125 -1.144531 3.644531 -0.726562 3.375 -0.4375 C 3.09375 -0.144531 2.675781 0 2.125 0 C 1.582031 0 1.171875 -0.144531 0.890625 -0.4375 C 0.609375 -0.726562 0.46875 -1.144531 0.46875 -1.6875 L 0.46875 -1.890625 C 0.46875 -1.941406 0.488281 -1.988281 0.53125 -2.03125 C 0.570312 -2.070312 0.617188 -2.09375 0.671875 -2.09375 L 1.3125 -2.09375 C 1.363281 -2.09375 1.410156 -2.070312 1.453125 -2.03125 C 1.492188 -1.988281 1.515625 -1.941406 1.515625 -1.890625 L 1.515625 -1.609375 C 1.515625 -1.378906 1.566406 -1.210938 1.671875 -1.109375 C 1.773438 -1.015625 1.914062 -0.96875 2.09375 -0.96875 C 2.269531 -0.96875 2.410156 -1.015625 2.515625 -1.109375 C 2.617188 -1.210938 2.671875 -1.378906 2.671875 -1.609375 C 2.671875 -1.734375 2.65625 -1.851562 2.625 -1.96875 C 2.59375 -2.070312 2.539062 -2.179688 2.46875 -2.296875 C 2.394531 -2.410156 2.296875 -2.53125 2.171875 -2.65625 C 2.046875 -2.78125 1.894531 -2.921875 1.71875 -3.078125 C 1.488281 -3.265625 1.296875 -3.441406 1.140625 -3.609375 C 0.984375 -3.785156 0.859375 -3.957031 0.765625 -4.125 C 0.660156 -4.289062 0.59375 -4.457031 0.5625 -4.625 C 0.519531 -4.789062 0.5 -4.972656 0.5 -5.171875 C 0.5 -5.703125 0.632812 -6.113281 0.90625 -6.40625 C 1.175781 -6.695312 1.585938 -6.84375 2.140625 -6.84375 Z M 2.140625 -6.84375 "/></g></g></g></g><g clip-path="url(#86c67d3715)"><g fill="#000000" fill-opacity="1"><g transform="translate(28.511573, 7.667677)"><g><path d="M 3.0625 0 C 2.195312 0 1.53125 -0.359375 1.0625 -1.078125 C 0.664062 -1.691406 0.46875 -2.472656 0.46875 -3.421875 C 0.46875 -3.890625 0.515625 -4.320312 0.609375 -4.71875 C 0.710938 -5.113281 0.863281 -5.457031 1.0625 -5.75 C 1.53125 -6.476562 2.195312 -6.84375 3.0625 -6.84375 C 3.925781 -6.84375 4.597656 -6.476562 5.078125 -5.75 C 5.265625 -5.457031 5.410156 -5.113281 5.515625 -4.71875 C 5.609375 -4.320312 5.65625 -3.890625 5.65625 -3.421875 C 5.65625 -2.472656 5.460938 -1.691406 5.078125 -1.078125 C 4.597656 -0.359375 3.925781 0 3.0625 0 Z M 3.0625 -5.796875 C 2.820312 -5.796875 2.617188 -5.75 2.453125 -5.65625 C 2.285156 -5.5625 2.144531 -5.445312 2.03125 -5.3125 C 1.914062 -5.15625 1.820312 -4.992188 1.75 -4.828125 C 1.6875 -4.640625 1.640625 -4.457031 1.609375 -4.28125 C 1.566406 -4.101562 1.546875 -3.941406 1.546875 -3.796875 C 1.523438 -3.640625 1.515625 -3.515625 1.515625 -3.421875 C 1.515625 -3.328125 1.523438 -3.207031 1.546875 -3.0625 C 1.546875 -2.90625 1.566406 -2.738281 1.609375 -2.5625 C 1.640625 -2.382812 1.6875 -2.207031 1.75 -2.03125 C 1.820312 -1.851562 1.914062 -1.691406 2.03125 -1.546875 C 2.144531 -1.398438 2.285156 -1.285156 2.453125 -1.203125 C 2.617188 -1.109375 2.820312 -1.0625 3.0625 -1.0625 C 3.300781 -1.0625 3.503906 -1.109375 3.671875 -1.203125 C 3.835938 -1.285156 3.984375 -1.398438 4.109375 -1.546875 C 4.210938 -1.691406 4.300781 -1.851562 4.375 -2.03125 C 4.4375 -2.207031 4.488281 -2.382812 4.53125 -2.5625 C 4.5625 -2.738281 4.582031 -2.90625 4.59375 -3.0625 C 4.601562 -3.207031 4.609375 -3.328125 4.609375 -3.421875 C 4.609375 -3.515625 4.601562 -3.640625 4.59375 -3.796875 C 4.582031 -3.941406 4.5625 -4.101562 4.53125 -4.28125 C 4.488281 -4.457031 4.4375 -4.640625 4.375 -4.828125 C 4.300781 -4.992188 4.210938 -5.15625 4.109375 -5.3125 C 3.984375 -5.445312 3.835938 -5.5625 3.671875 -5.65625 C 3.503906 -5.75 3.300781 -5.796875 3.0625 -5.796875 Z M 3.0625 -5.796875 "/></g></g></g></g><g clip-path="url(#8211f37df6)"><g fill="#000000" fill-opacity="1"><g transform="translate(34.64571, 7.667677)"><g><path d="M 4.546875 -6.84375 C 4.617188 -6.84375 4.6875 -6.820312 4.75 -6.78125 C 4.800781 -6.71875 4.828125 -6.648438 4.828125 -6.578125 L 4.828125 -0.265625 C 4.828125 -0.191406 4.800781 -0.128906 4.75 -0.078125 C 4.6875 -0.0234375 4.617188 0 4.546875 0 L 3.828125 0 C 3.710938 0 3.632812 -0.0507812 3.59375 -0.15625 L 1.71875 -4.15625 C 1.695312 -4.207031 1.660156 -4.226562 1.609375 -4.21875 C 1.546875 -4.207031 1.515625 -4.171875 1.515625 -4.109375 L 1.515625 -0.265625 C 1.515625 -0.191406 1.492188 -0.128906 1.453125 -0.078125 C 1.390625 -0.0234375 1.320312 0 1.25 0 L 0.734375 0 C 0.660156 0 0.597656 -0.0234375 0.546875 -0.078125 C 0.492188 -0.128906 0.46875 -0.191406 0.46875 -0.265625 L 0.46875 -6.578125 C 0.46875 -6.648438 0.492188 -6.71875 0.546875 -6.78125 C 0.597656 -6.820312 0.660156 -6.84375 0.734375 -6.84375 L 1.453125 -6.84375 C 1.578125 -6.84375 1.660156 -6.789062 1.703125 -6.6875 L 3.5625 -2.6875 C 3.582031 -2.632812 3.625 -2.617188 3.6875 -2.640625 C 3.738281 -2.648438 3.765625 -2.679688 3.765625 -2.734375 L 3.765625 -6.578125 C 3.765625 -6.648438 3.789062 -6.71875 3.84375 -6.78125 C 3.90625 -6.820312 3.972656 -6.84375 4.046875 -6.84375 Z M 4.546875 -6.84375 "/></g></g></g></g><g fill="#000000" fill-opacity="1"><g transform="translate(39.938275, 7.667677)"><g><path d="M 0.734375 0 C 0.660156 0 0.597656 -0.0234375 0.546875 -0.078125 C 0.492188 -0.128906 0.46875 -0.191406 0.46875 -0.265625 L 0.46875 -0.78125 C 0.46875 -0.851562 0.492188 -0.921875 0.546875 -0.984375 C 0.597656 -1.035156 0.660156 -1.0625 0.734375 -1.0625 L 1.25 -1.0625 C 1.320312 -1.0625 1.390625 -1.035156 1.453125 -0.984375 C 1.492188 -0.921875 1.515625 -0.851562 1.515625 -0.78125 L 1.515625 -0.265625 C 1.515625 -0.191406 1.492188 -0.128906 1.453125 -0.078125 C 1.390625 -0.0234375 1.320312 0 1.25 0 Z M 0.734375 0 "/></g></g></g><g clip-path="url(#b0ffbc7811)"><g fill="#000000" fill-opacity="1"><g transform="translate(41.929999, 7.667677)"><g><path d="M 4.265625 0 C 4.140625 0 4.054688 -0.0664062 4.015625 -0.203125 C 3.992188 -0.273438 3.96875 -0.375 3.9375 -0.5 C 3.894531 -0.625 3.847656 -0.796875 3.796875 -1.015625 C 3.753906 -1.148438 3.660156 -1.21875 3.515625 -1.21875 L 2.03125 -1.21875 C 1.894531 -1.21875 1.800781 -1.148438 1.75 -1.015625 C 1.707031 -0.847656 1.671875 -0.695312 1.640625 -0.5625 C 1.609375 -0.425781 1.578125 -0.304688 1.546875 -0.203125 C 1.492188 -0.0664062 1.40625 0 1.28125 0 L 0.75 0 C 0.65625 0 0.582031 -0.0351562 0.53125 -0.109375 C 0.476562 -0.179688 0.460938 -0.257812 0.484375 -0.34375 C 0.546875 -0.570312 0.625 -0.863281 0.71875 -1.21875 C 0.8125 -1.570312 0.914062 -1.953125 1.03125 -2.359375 C 1.144531 -2.765625 1.257812 -3.1875 1.375 -3.625 C 1.488281 -4.050781 1.597656 -4.460938 1.703125 -4.859375 C 1.796875 -5.242188 1.890625 -5.597656 1.984375 -5.921875 C 2.066406 -6.222656 2.128906 -6.460938 2.171875 -6.640625 C 2.191406 -6.703125 2.222656 -6.753906 2.265625 -6.796875 C 2.316406 -6.828125 2.375 -6.84375 2.4375 -6.84375 L 3.109375 -6.84375 C 3.171875 -6.84375 3.226562 -6.828125 3.28125 -6.796875 C 3.332031 -6.753906 3.363281 -6.703125 3.375 -6.640625 C 3.59375 -5.816406 3.78125 -5.113281 3.9375 -4.53125 C 4.09375 -3.945312 4.222656 -3.457031 4.328125 -3.0625 C 4.441406 -2.65625 4.53125 -2.332031 4.59375 -2.09375 C 4.65625 -1.851562 4.707031 -1.660156 4.75 -1.515625 C 4.789062 -1.367188 4.820312 -1.253906 4.84375 -1.171875 C 4.863281 -1.097656 4.882812 -1.023438 4.90625 -0.953125 C 4.925781 -0.878906 4.945312 -0.800781 4.96875 -0.71875 C 4.988281 -0.632812 5.019531 -0.507812 5.0625 -0.34375 C 5.09375 -0.257812 5.078125 -0.179688 5.015625 -0.109375 C 4.960938 -0.0351562 4.890625 0 4.796875 0 Z M 2.1875 -2.625 C 2.164062 -2.539062 2.179688 -2.460938 2.234375 -2.390625 C 2.285156 -2.316406 2.359375 -2.28125 2.453125 -2.28125 L 3.109375 -2.28125 C 3.191406 -2.28125 3.257812 -2.316406 3.3125 -2.390625 C 3.375 -2.460938 3.390625 -2.539062 3.359375 -2.625 C 3.304688 -2.800781 3.257812 -2.988281 3.21875 -3.1875 C 3.15625 -3.382812 3.09375 -3.597656 3.03125 -3.828125 C 3.019531 -3.890625 2.988281 -3.941406 2.9375 -3.984375 C 2.882812 -4.015625 2.832031 -4.03125 2.78125 -4.03125 C 2.71875 -4.03125 2.660156 -4.015625 2.609375 -3.984375 C 2.566406 -3.941406 2.535156 -3.890625 2.515625 -3.828125 C 2.453125 -3.617188 2.398438 -3.414062 2.359375 -3.21875 C 2.296875 -3.019531 2.238281 -2.820312 2.1875 -2.625 Z M 2.1875 -2.625 "/></g></g></g></g><g clip-path="url(#dfe88d6646)"><g fill="#000000" fill-opacity="1"><g transform="translate(47.484385, 7.667677)"><g><path d="M 1.25 -6.84375 C 1.320312 -6.84375 1.390625 -6.820312 1.453125 -6.78125 C 1.492188 -6.71875 1.515625 -6.648438 1.515625 -6.578125 L 1.515625 -0.265625 C 1.515625 -0.191406 1.492188 -0.128906 1.453125 -0.078125 C 1.390625 -0.0234375 1.320312 0 1.25 0 L 0.734375 0 C 0.660156 0 0.597656 -0.0234375 0.546875 -0.078125 C 0.492188 -0.128906 0.46875 -0.191406 0.46875 -0.265625 L 0.46875 -6.578125 C 0.46875 -6.648438 0.492188 -6.71875 0.546875 -6.78125 C 0.597656 -6.820312 0.660156 -6.84375 0.734375 -6.84375 Z M 1.25 -6.84375 "/></g></g></g></g></g></g></svg>